<svg xmlns="http://www.w3.org/2000/svg" viewBox="0 0 512 512">
  <defs>
    <linearGradient id="bg" x1="0" y1="0" x2="1" y2="1">
      <stop offset="0%" stop-color="#101926"/>
      <stop offset="100%" stop-color="#1f3148"/>
    </linearGradient>
    <linearGradient id="heart" x1="0" y1="0" x2="1" y2="1">
      <stop offset="0%" stop-color="#52d1c7"/>
      <stop offset="100%" stop-color="#ff9f68"/>
    </linearGradient>
  </defs>
  <rect width="512" height="512" rx="120" fill="url(#bg)"/>
  <path d="M256 386c-9-7-17-14-26-21C134 285 90 245 90 181c0-45 36-81 81-81 31 0 58 17 72 43 14-26 41-43 72-43 45 0 81 36 81 81 0 64-44 104-140 184-9 7-17 14-26 21z" fill="url(#heart)"/>
</svg>
